<?xml version="1.0" encoding="UTF-8"?>
<svg width="32px" height="32px" viewBox="0 0 32 32" version="1.1" xmlns="http://www.w3.org/2000/svg" xmlns:xlink="http://www.w3.org/1999/xlink">
    <!-- Generator: Sketch 47.1 (45422) - http://www.bohemiancoding.com/sketch -->
    <title>华为云APP</title>
    <desc>Created with Sketch.</desc>
    <defs></defs>
    <g id="Page-1" stroke="none" stroke-width="1" fill="none" fill-rule="evenodd">
        <g id="尾部导航-copy" transform="translate(-593.000000, -3049.000000)">
            <g id="Group-9-Copy-3" transform="translate(348.000000, 2658.000000)">
                <g id="Group-44" transform="translate(245.000000, 283.000000)">
                    <g id="Group-8">
                        <g id="Group-15" transform="translate(0.000000, 108.000000)" stroke-width="1.05" stroke="#979797">
                            <circle id="Oval-Copy-2" cx="16" cy="16" r="15.475"></circle>
                        </g>
                        <g id="Group-14" fill-rule="nonzero" fill="#999999">
                            <g id="huawei" transform="translate(8.000000, 118.000000)">
                                <g id="Group">
                                    <path d="M7.02864709,9.59743807 C7.00756967,9.62461685 6.97151618,9.61241413 6.96208681,9.60853145 C6.26153984,9.26075397 3.24746838,7.7293128 2.00168176,6.51569699 C2.00168176,6.51569699 1.22847314,5.90833441 1.17411558,4.88053271 C1.07205648,3.52270295 2.50032921,2.16764653 2.50032921,2.16764653 C2.50032921,2.16764653 5.12502301,5.34534535 7.04306849,9.53697914 C7.05859922,9.57469664 7.02864709,9.59743807 7.02864709,9.59743807 Z M6.56272512,10.6346691 C6.56272512,10.6346691 6.57603717,10.6629573 6.53776501,10.6967921 L6.53942902,10.6979014 C6.04688293,11.0501162 4.55426859,12.09123 3.89532179,12.255412 C2.94073641,12.4872637 2.02331385,11.7340231 1.47973821,10.7627977 L6.49782884,10.5886316 L6.49782884,10.5902956 C6.49782884,10.5902956 6.54996773,10.5902956 6.56272512,10.6346691 Z M6.6381601,10.1842779 C6.6381601,10.1842779 6.61985602,10.217558 6.58657588,10.2181127 C5.80726591,10.2219954 2.89747223,10.2341981 2.82259191,10.2203314 C2.82259191,10.2203314 2.34280321,10.2064646 1.86245983,10.0095571 C1.86245983,10.0095571 0.82245542,9.661225 0.27887978,8.51028678 C0.27887978,8.51028678 -0.244727776,7.54183467 0.14298587,6.33931224 C0.14298587,6.33931224 4.41560134,8.62232993 6.61985602,10.1093976 L6.61930136,10.1099522 C6.61930136,10.1099522 6.66256554,10.1454511 6.6381601,10.1842779 Z M6.97151618,0.000554669021 C6.97151618,0.000554669021 8.4519278,1.91471746 7.72974874,9.13539877 L7.7286394,9.1348441 C7.7286394,9.1348441 7.73252208,9.18365498 7.68260187,9.19807637 C7.68260187,9.19807637 7.65597776,9.20972442 7.62269761,9.17644428 C7.15344762,8.49697473 4.97082503,5.26325434 4.52764448,3.29528865 C4.52764448,3.29528865 4.27859809,2.46217578 4.52154312,1.70338856 C4.52154312,1.70338856 4.83437645,0.497538112 6.16336342,0.154197988 C6.16336342,0.154197988 6.75297659,0.0199680847 6.97151618,0.000554669021 Z M8.6327499,9.19530303 C8.6327499,9.19530303 8.6005791,9.18531898 8.59447774,9.13928145 L8.59392307,9.13928145 C7.87063467,1.91527213 9.35825698,0 9.35825698,0 C9.76482937,0.0576855782 10.1486603,0.154752657 10.1486603,0.154752657 C11.4787566,0.478124696 11.8071207,1.70283389 11.8071207,1.70283389 C12.0384177,2.34624996 11.7993553,3.29473398 11.7993553,3.29473398 C11.3578388,5.25548897 9.18797359,8.47145995 8.70652088,9.16812424 L8.70541154,9.16701491 C8.70541154,9.16701491 8.68100611,9.2136071 8.6327499,9.19530303 Z M9.82085094,10.593069 L9.82029627,10.593069 L9.82029627,10.5919596 L14.8461523,10.7661257 C13.7190648,12.7024752 12.4222487,12.260404 12.4222487,12.260404 C11.719483,12.0623872 10.2634768,11.0440149 9.78257878,10.6995654 L9.78368812,10.6995654 C9.75373599,10.6762693 9.7642747,10.6318958 9.7642747,10.6318958 C9.77647742,10.5986156 9.82085094,10.593069 9.82085094,10.593069 Z M16.1823499,6.32821886 C16.5634076,7.47971174 16.0708615,8.46424926 16.0719708,8.46424926 C15.5195205,9.67176371 14.4562199,10.0095571 14.4562199,10.0095571 C13.9786499,10.1931526 13.5920456,10.2081287 13.5920456,10.2081287 C13.5166106,10.2231047 10.5263899,10.2186674 9.73709592,10.217558 L9.73709592,10.2170034 C9.70658912,10.2170034 9.6855117,10.1798405 9.6855117,10.1798405 C9.67164498,10.1326937 9.71102648,10.1071789 9.71102648,10.1071789 L9.71102648,10.1060696 C11.9163905,8.61789257 16.1823499,6.32821886 16.1823499,6.32821886 Z M9.30722743,9.59743807 C9.27117394,9.56582193 9.2933607,9.51701106 9.2933607,9.51756573 L9.29225137,9.5181204 C11.2102968,5.33536131 13.8266706,2.1682012 13.8266706,2.1682012 C13.8266706,2.1682012 15.2416313,3.46945472 15.1512202,4.87443135 C15.1096201,5.88614765 14.3247634,6.51625166 14.3247634,6.51625166 C13.0856328,7.72321144 10.0937481,9.24522324 9.37489705,9.60243009 C9.34217158,9.62295284 9.30722743,9.59743807 9.30722743,9.59743807 Z" id="Combined-Shape"></path>
                                </g>
                            </g>
                        </g>
                    </g>
                </g>
            </g>
        </g>
    </g>
</svg>