<?xml version="1.0" encoding="UTF-8"?>
<svg width="48px" height="48px" viewBox="0 0 48 48" version="1.1" xmlns="http://www.w3.org/2000/svg" xmlns:xlink="http://www.w3.org/1999/xlink">
    <!-- Generator: Sketch 49.3 (51167) - http://www.bohemiancoding.com/sketch -->
    <title>Artboard</title>
    <desc>Created with Sketch.</desc>
    <defs></defs>
    <g id="Artboard" stroke="none" stroke-width="1" fill="none" fill-rule="evenodd">
        <g id="知乎">
            <circle id="Oval-Copy-3" stroke="#979797" stroke-width="1.5" cx="24" cy="24" r="23.25"></circle>
            <path d="M34.152,15.672 L34.152,34.392 L31.944,34.392 L31.944,33.024 L27.744,33.024 L27.744,34.416 L25.536,34.416 L25.536,15.672 L34.152,15.672 Z M27.744,30.888 L31.944,30.888 L31.944,17.808 L27.744,17.808 L27.744,30.888 Z M16.92,18.528 C16.368,19.728 15.744,20.832 15.072,21.84 L13.08,20.568 C14.616,18.312 15.72,15.888 16.368,13.296 L18.624,13.776 C18.384,14.688 18.096,15.528 17.808,16.344 L24.36,16.344 L24.36,18.528 L21.096,18.528 C21.048,20.016 20.976,21.408 20.832,22.68 L24.576,22.68 L24.576,24.864 L20.52,24.864 C20.424,25.392 20.304,25.92 20.208,26.4 C21.672,27.888 23.16,29.544 24.696,31.368 L23.304,33.48 C21.816,31.368 20.568,29.712 19.56,28.512 C18.552,31.032 16.848,33.168 14.4,34.896 L12.912,33.072 C15.408,31.224 17.04,28.968 17.832,26.28 C17.928,25.824 18.048,25.344 18.144,24.864 L13.416,24.864 L13.416,22.68 L18.48,22.68 C18.624,21.408 18.696,20.016 18.744,18.528 L16.92,18.528 Z" id="知" fill="#A0A2A8"></path>
        </g>
    </g>
</svg>